<svg width="48" height="48" viewBox="0 0 48 48" fill="none" xmlns="http://www.w3.org/2000/svg">
<path d="M17.3515 24.5475H13.3097C13.2134 23.9957 12.3281 21.8987 11.8662 20.5743C11.2888 18.9187 12.155 17.5943 12.7324 17.2632C13.3098 16.9321 15.0419 16.601 15.908 17.2632C16.6008 17.793 17.0628 22.5609 17.3515 24.5475Z" fill="#EC8C6C"/>
<path d="M26.3381 24.5475H21.743C21.6385 24.0074 20.884 21.9549 20.3825 20.6586C19.7556 19.0382 20.8026 17.4178 21.4295 17.0937C22.0564 16.7697 23.8305 16.7696 24.7708 17.4178C25.5231 17.9363 26.0247 22.6031 26.3381 24.5475Z" fill="#EC8C6C"/>
<path d="M35.3244 24.5475H30.7293C30.6249 24.0074 29.8703 21.9549 29.3688 20.6586C28.7419 19.0382 29.7889 17.4178 30.4158 17.0937C31.0427 16.7697 32.8168 16.7696 33.7572 17.4178C34.5095 17.9363 35.011 22.6031 35.3244 24.5475Z" fill="#EC8C6C"/>
<path d="M39 24.4932H35.5327L34.3335 18.4505C34.0366 17.1296 32.8057 16.2509 31.5264 16.454L31.4705 16.4628C31.4048 16.1957 31.3346 15.901 31.2628 15.5859C31.438 15.1572 32.1804 13.5431 33.5151 13.2838C33.7192 13.2442 33.8535 13.0386 33.8159 12.8245C33.7783 12.6104 33.582 12.4669 33.3794 12.5085C32.5553 12.6684 31.9271 13.1923 31.4698 13.752C31.6826 12.523 32.145 10.4596 32.9556 9.59656C33.1011 9.44152 33.0991 9.19201 32.9521 9.03902C32.8047 8.88577 32.5679 8.88782 32.4214 9.04261C31.5523 9.96858 31.0527 11.9095 30.7985 13.2428C30.5576 11.7746 30.4292 10.3051 30.6543 9.4215C30.708 9.21126 30.5889 8.99512 30.3892 8.93865C30.186 8.88372 29.9834 9.0077 29.9297 9.21768C29.7524 9.9131 29.7624 10.8957 29.87 11.9556C29.3597 11.2964 28.731 10.7081 27.9995 10.4858C27.7993 10.4247 27.5923 10.5463 27.5352 10.7553C27.4775 10.9645 27.5923 11.183 27.7915 11.2435C28.807 11.5519 29.6397 12.841 30.1288 13.7833C30.1544 13.929 30.1809 14.0735 30.208 14.2172C28.789 13.0451 27.3569 13.5331 27.3389 13.5394C27.144 13.6095 27.04 13.8313 27.1055 14.0369C27.1704 14.2425 27.3828 14.3547 27.5786 14.2867C27.6453 14.2638 29.2137 13.7582 30.5208 15.7217C30.5912 16.0335 30.6605 16.326 30.726 16.5928C29.2844 16.9485 28.4498 18.5276 28.9356 20.0133L30.5016 24.4932H26.7563L25.5571 18.4505C25.2603 17.1293 24.0244 16.2509 22.7505 16.454L22.6938 16.4629C22.628 16.1956 22.5577 15.9006 22.486 15.5852C22.662 15.1556 23.4047 13.543 24.7388 13.2838C24.9429 13.2442 25.0772 13.0386 25.0396 12.8245C25.0024 12.6104 24.8076 12.4669 24.603 12.5085C23.778 12.6686 23.1489 13.1936 22.6915 13.754C22.9279 12.4022 23.415 10.4102 24.1792 9.59656C24.3247 9.44152 24.3228 9.19201 24.1758 9.03902C24.0278 8.88577 23.791 8.88782 23.645 9.04261C22.7759 9.96868 22.2762 11.9099 22.022 13.2433C21.7811 11.7749 21.6528 10.3052 21.8779 9.4215C21.9316 9.21127 21.8125 8.99513 21.6128 8.93865C21.4102 8.88372 21.207 9.00771 21.1533 9.21768C20.9761 9.91304 20.986 10.8955 21.0935 11.9553C20.5833 11.2962 19.9545 10.7081 19.2231 10.4858C19.0239 10.4247 18.8159 10.5463 18.7588 10.7553C18.7012 10.9645 18.8159 11.183 19.0151 11.2435C20.0308 11.552 20.8633 12.8414 21.3524 13.7838C21.3779 13.9294 21.4044 14.0738 21.4315 14.2175C20.0121 13.0445 18.5801 13.5327 18.5625 13.5394C18.3667 13.6098 18.2617 13.8339 18.3286 14.04C18.395 14.2461 18.6084 14.3557 18.8047 14.2859C18.8207 14.2798 20.4223 13.7369 21.7442 15.7222C21.8146 16.0339 21.8838 16.3261 21.9492 16.5928C20.5082 16.9482 19.673 18.5276 20.1587 20.0133L21.7248 24.4932H17.9794L16.7803 18.4505C16.4834 17.1296 15.2534 16.2509 13.9732 16.454L13.9173 16.4628C13.8516 16.1956 13.7813 15.9007 13.7095 15.5855C13.8855 15.1562 14.6281 13.543 15.9619 13.2838C16.166 13.2442 16.3003 13.0386 16.2627 12.8245C16.2251 12.6104 16.0293 12.4669 15.8262 12.5085C15.0021 12.6684 14.3739 13.1924 13.9166 13.7521C14.1294 12.5232 14.5918 10.4597 15.4024 9.59658C15.5479 9.44153 15.5459 9.19202 15.3989 9.03903C15.2515 8.88578 15.0147 8.88783 14.8682 9.04262C13.9991 9.96859 13.4995 11.9095 13.2453 13.2428C13.0043 11.7746 12.876 10.3052 13.1011 9.42151C13.1548 9.21127 13.0357 8.99513 12.836 8.93866C12.6328 8.88373 12.4302 9.00771 12.3765 9.21769C12.1992 9.91311 12.2092 10.8957 12.3168 11.9556C11.8065 11.2964 11.1777 10.7081 10.4463 10.4858C10.2466 10.4247 10.0391 10.5463 9.98194 10.7553C9.92432 10.9645 10.0391 11.183 10.2383 11.2435C11.2538 11.552 12.0864 12.8411 12.5756 13.7834C12.6012 13.929 12.6278 14.0735 12.6548 14.2172C11.2355 13.0446 9.80371 13.5327 9.78614 13.5394C9.59034 13.6098 9.48536 13.8339 9.55226 14.04C9.61915 14.2461 9.83155 14.3557 10.0283 14.2859C10.0448 14.2798 11.6456 13.737 12.9675 15.7219C13.038 16.0336 13.1073 16.326 13.1727 16.5928C11.7312 16.9486 10.8966 18.5276 11.3823 20.0133L12.9484 24.4932H8C7.79297 24.4932 7.625 24.6698 7.625 24.8875V30.305C7.625 30.5227 7.79297 30.6993 8 30.6993H10.7471V32.4308H8C7.79297 32.4308 7.625 32.6074 7.625 32.825V38.2424C7.625 38.46 7.79297 38.6366 8 38.6366H39C39.207 38.6366 39.375 38.46 39.375 38.2424V32.825C39.375 32.6074 39.207 32.4307 39 32.4307H36.2524V30.6993H39C39.207 30.6993 39.375 30.5227 39.375 30.305V24.8875C39.375 24.6698 39.207 24.4932 39 24.4932ZM30.9208 17.3617C31.0311 17.7826 31.1086 18.0544 31.123 18.1048C31.2665 18.6047 31.9854 18.3783 31.8408 17.8766C31.8374 17.8647 31.7692 17.6249 31.666 17.2323C32.5519 17.1092 33.3981 17.7162 33.6016 18.6218L34.7422 24.3715L31.2251 24.2765L29.6421 19.7489C29.3083 18.7275 29.8711 17.6068 30.9208 17.3617ZM22.144 17.3616C22.2543 17.7824 22.3318 18.0542 22.3462 18.1045C22.4897 18.6055 23.2082 18.3773 23.064 17.8766C23.0605 17.8647 22.9924 17.6249 22.8893 17.2323C23.7791 17.1089 24.6212 17.716 24.8252 18.6218L25.9658 24.3715L22.4482 24.2765L20.8652 19.7489C20.5319 18.7293 21.0937 17.6067 22.144 17.3616ZM13.3676 17.3617C13.4779 17.7826 13.5554 18.0544 13.5698 18.1048C13.7129 18.6036 14.4315 18.3759 14.2876 17.8766C14.2842 17.8647 14.2159 17.6249 14.1128 17.2323C15.002 17.1091 15.8444 17.7162 16.0483 18.6218L17.189 24.3715L13.6719 24.2765L12.0889 19.7489C11.7551 18.7275 12.3179 17.6068 13.3676 17.3617ZM38.625 37.8481H8.375V33.2193C15.875 33.2193 31.1188 33.2193 38.625 33.2193V37.8481ZM35.5024 32.4307H11.4971V30.6993H35.5024V32.4307ZM38.625 29.9108C30.7661 29.9104 15.7243 29.9091 8.375 29.9108V25.2817H38.625V29.9108Z" fill="#2D2D2D" stroke="#2D2D2D" stroke-width="0.2"/>
<path d="M11.7524 29.2182C12.6045 29.2182 13.2974 28.4895 13.2974 27.5939C13.2974 26.7011 12.6045 25.9746 11.7524 25.9746C10.9004 25.9746 10.207 26.7011 10.207 27.5939C10.207 28.4895 10.9004 29.2182 11.7524 29.2182Z" fill="#F5C5B5"/>
<path d="M35.2476 29.2182C36.0996 29.2182 36.7925 28.4895 36.7925 27.5939C36.7925 26.7011 36.0996 25.9746 35.2476 25.9746C34.3955 25.9746 33.7021 26.7011 33.7021 27.5939C33.7021 28.4895 34.3955 29.2182 35.2476 29.2182Z" fill="#F5C5B5"/>
<path d="M11.7524 33.9119C10.9004 33.9119 10.207 34.6383 10.207 35.5311C10.207 36.4267 10.9004 37.1555 11.7524 37.1555C12.6045 37.1555 13.2974 36.4267 13.2974 35.5311C13.2974 34.6383 12.6045 33.9119 11.7524 33.9119Z" fill="#F5C5B5"/>
<path d="M35.2476 37.1555C34.3955 37.1555 33.7021 36.4267 33.7021 35.5311C33.7021 34.6383 34.3955 33.9119 35.2476 33.9119C36.0996 33.9119 36.7925 34.6383 36.7925 35.5311C36.7925 36.4267 36.0996 37.1555 35.2476 37.1555Z" fill="#F5C5B5"/>
</svg>
